<?xml version="1.0" encoding="utf-8"?>
<!-- Generator: Adobe Illustrator 23.0.1, SVG Export Plug-In . SVG Version: 6.00 Build 0)  -->
<svg version="1.1" id="Calque_1" xmlns="http://www.w3.org/2000/svg" xmlns:xlink="http://www.w3.org/1999/xlink" x="0px" y="0px"
	 viewBox="0 0 612 792" style="enable-background:new 0 0 612 792;" xml:space="preserve">
<style type="text/css">
	.st0{fill:none;}
	.st1{font-family:'CompactaBT-Roman';}
	.st2{font-size:119.5577px;}
	.st3{fill:#B21F2D;}
	.st4{fill:#FFFFFF;}
	.st5{font-size:67.7014px;}
	.st6{font-size:120.5945px;}
</style>
<rect x="27.28" y="299.37" class="st0" width="760.56" height="126.53"/>
<text transform="matrix(1 0 0 1 27.2803 396.4512)" class="st1 st2">LA CASA</text>
<rect x="317.16" y="299.37" class="st3" width="109.07" height="97.31"/>
<path class="st0" d="M497.1,341.55c0.58,3.34,1.15,6.68,1.73,10.03"/>
<rect x="324.68" y="284.02" class="st3" width="37.68" height="11.75"/>
<path class="st3" d="M329.52,222.97h29.04v10.03c0,0-10.03,4.49,0,18.32c-0.35,10.72,0,30.77,0,30.77h-30.08v-31.46
	c0,0,12.1-9.68,0-18.67C329.52,222.97,329.52,222.97,329.52,222.97z"/>
<rect x="331.77" y="257.14" class="st4" width="23.51" height="23.51"/>
<circle class="st4" cx="337.3" cy="316.94" r="6.22"/>
<text transform="matrix(1 0 0 1 350.4971 377.876)" class="st4 st1 st5">DE</text>
<text transform="matrix(0.9914 0 0 1 437.3711 396.3848)" class="st1 st6">VAPE</text>
<rect x="420.12" y="304.58" class="st3" width="8.99" height="18.58"/>
<rect x="420.12" y="325.67" class="st3" width="8.99" height="11.41"/>
</svg>
