<?xml version="1.0" encoding="utf-8"?>
<!-- Generator: Adobe Illustrator 23.0.1, SVG Export Plug-In . SVG Version: 6.00 Build 0)  -->
<svg version="1.1" id="Calque_1" xmlns="http://www.w3.org/2000/svg" xmlns:xlink="http://www.w3.org/1999/xlink" x="0px" y="0px"
	 viewBox="0 0 1280 1024" style="enable-background:new 0 0 1280 1024;" xml:space="preserve">
<style type="text/css">
	.st0{fill:none;}
	.st1{font-family:'CompactaBT-Roman';}
	.st2{font-size:266.3189px;}
	.st3{fill:#B21F2D;}
	.st4{fill:#FFFFFF;}
	.st5{font-size:150.8071px;}
	.st6{font-size:268.6283px;}
</style>
<rect y="384.36" class="st0" width="1694.17" height="281.85"/>
<text transform="matrix(1 0 0 1 -1.647949e-03 600.6076)" class="st1 st2">LA CASA</text>
<rect x="645.71" y="384.36" class="st3" width="242.96" height="216.76"/>
<path class="st0" d="M1046.54,478.31c1.28,7.44,2.57,14.89,3.85,22.33"/>
<rect x="662.48" y="350.15" class="st3" width="83.94" height="26.18"/>
<path class="st3" d="M673.26,214.17h64.69v22.33c0,0-22.33,10.01,0,40.81c-0.77,23.87,0,68.54,0,68.54h-67v-70.08
	c0,0,26.95-21.56,0-41.58C673.26,214.17,673.26,214.17,673.26,214.17z"/>
<rect x="678.26" y="290.28" class="st4" width="52.37" height="52.37"/>
<circle class="st4" cx="690.58" cy="423.5" r="13.86"/>
<text transform="matrix(1 0 0 1 719.9769 559.2326)" class="st4 st1 st5">DE</text>
<text transform="matrix(0.9914 0 0 1 913.4905 600.4611)" class="st1 st6">VAPE</text>
<rect x="875.07" y="395.97" class="st3" width="20.02" height="41.39"/>
<rect x="875.07" y="442.95" class="st3" width="20.02" height="25.41"/>
</svg>
